<svg xmlns="http://www.w3.org/2000/svg" version="1.1" xmlns:xlink="http://www.w3.org/1999/xlink" xmlns:svgjs="http://svgjs.com/svgjs" width="1440" height="560" preserveAspectRatio="none" viewBox="0 0 1440 560"><g mask="url(&quot;#SvgjsMask1000&quot;)" fill="none"><rect width="1440" height="560" x="0" y="0" fill="#0e2a47"></rect><path d="M-90.86 394.89L-90.86 394.89" stroke="#132e65" stroke-width="1.5"></path><path d="M-90.86 394.89L-79.06 491.62" stroke="#132e65" stroke-width="1.5"></path><path d="M-90.86 394.89L40.13 407.33" stroke="#132e65" stroke-width="1.5"></path><path d="M-90.86 394.89L37.71 517.6" stroke="#132e65" stroke-width="1.5"></path><path d="M-79.06 491.62L-79.06 491.62" stroke="#132e65" stroke-width="1.5"></path><path d="M-79.06 491.62L37.71 517.6" stroke="#132e65" stroke-width="1.5"></path><path d="M-79.06 491.62L40.13 407.33" stroke="#132e65" stroke-width="1.5"></path><path d="M-79.06 491.62L105.21 662.99" stroke="#132e65" stroke-width="1.5"></path><path d="M-79.06 491.62L193.27 400.78" stroke="#132e65" stroke-width="1.5"></path><path d="M40.13 407.33L40.13 407.33" stroke="#132e65" stroke-width="1.5"></path><path d="M40.13 407.33L37.71 517.6" stroke="#132e65" stroke-width="1.5"></path><path d="M37.71 517.6L37.71 517.6" stroke="#132e65" stroke-width="1.5"></path><path d="M105.21 662.99L105.21 662.99" stroke="#132e65" stroke-width="1.5"></path><path d="M105.21 662.99L200.51 680.36" stroke="#132e65" stroke-width="1.5"></path><path d="M105.21 662.99L37.71 517.6" stroke="#132e65" stroke-width="1.5"></path><path d="M105.21 662.99L209.92 500.46" stroke="#132e65" stroke-width="1.5"></path><path d="M193.27 400.78L193.27 400.78" stroke="#132e65" stroke-width="1.5"></path><path d="M193.27 400.78L209.92 500.46" stroke="#132e65" stroke-width="1.5"></path><path d="M193.27 400.78L40.13 407.33" stroke="#132e65" stroke-width="1.5"></path><path d="M193.27 400.78L379.64 377.96" stroke="#132e65" stroke-width="1.5"></path><path d="M193.27 400.78L37.71 517.6" stroke="#132e65" stroke-width="1.5"></path><path d="M193.27 400.78L410.74 489.62" stroke="#132e65" stroke-width="1.5"></path><path d="M209.92 500.46L209.92 500.46" stroke="#132e65" stroke-width="1.5"></path><path d="M200.51 680.36L200.51 680.36" stroke="#132e65" stroke-width="1.5"></path><path d="M200.51 680.36L362.94 663.94" stroke="#132e65" stroke-width="1.5"></path><path d="M200.51 680.36L209.92 500.46" stroke="#132e65" stroke-width="1.5"></path><path d="M200.51 680.36L37.71 517.6" stroke="#132e65" stroke-width="1.5"></path><path d="M379.64 377.96L379.64 377.96" stroke="#132e65" stroke-width="1.5"></path><path d="M379.64 377.96L410.74 489.62" stroke="#132e65" stroke-width="1.5"></path><path d="M379.64 377.96L544.35 342.58" stroke="#132e65" stroke-width="1.5"></path><path d="M410.74 489.62L410.74 489.62" stroke="#132e65" stroke-width="1.5"></path><path d="M410.74 489.62L557.04 504.03" stroke="#132e65" stroke-width="1.5"></path><path d="M362.94 663.94L362.94 663.94" stroke="#132e65" stroke-width="1.5"></path><path d="M362.94 663.94L493.02 695.3" stroke="#132e65" stroke-width="1.5"></path><path d="M362.94 663.94L410.74 489.62" stroke="#132e65" stroke-width="1.5"></path><path d="M362.94 663.94L209.92 500.46" stroke="#132e65" stroke-width="1.5"></path><path d="M362.94 663.94L557.04 504.03" stroke="#132e65" stroke-width="1.5"></path><path d="M544.35 342.58L544.35 342.58" stroke="#132e65" stroke-width="1.5"></path><path d="M544.35 342.58L557.04 504.03" stroke="#132e65" stroke-width="1.5"></path><path d="M557.04 504.03L557.04 504.03" stroke="#132e65" stroke-width="1.5"></path><path d="M557.04 504.03L649.09 553.25" stroke="#132e65" stroke-width="1.5"></path><path d="M557.04 504.03L711.91 411.14" stroke="#132e65" stroke-width="1.5"></path><path d="M493.02 695.3L493.02 695.3" stroke="#132e65" stroke-width="1.5"></path><path d="M493.02 695.3L557.04 504.03" stroke="#132e65" stroke-width="1.5"></path><path d="M493.02 695.3L701.29 662.34" stroke="#132e65" stroke-width="1.5"></path><path d="M493.02 695.3L649.09 553.25" stroke="#132e65" stroke-width="1.5"></path><path d="M493.02 695.3L410.74 489.62" stroke="#132e65" stroke-width="1.5"></path><path d="M493.02 695.3L200.51 680.36" stroke="#132e65" stroke-width="1.5"></path><path d="M711.91 411.14L711.91 411.14" stroke="#132e65" stroke-width="1.5"></path><path d="M711.91 411.14L843.4 388.78" stroke="#132e65" stroke-width="1.5"></path><path d="M711.91 411.14L821.36 513.59" stroke="#132e65" stroke-width="1.5"></path><path d="M711.91 411.14L649.09 553.25" stroke="#132e65" stroke-width="1.5"></path><path d="M711.91 411.14L544.35 342.58" stroke="#132e65" stroke-width="1.5"></path><path d="M711.91 411.14L805.62 254.51" stroke="#132e65" stroke-width="1.5"></path><path d="M649.09 553.25L649.09 553.25" stroke="#132e65" stroke-width="1.5"></path><path d="M649.09 553.25L701.29 662.34" stroke="#132e65" stroke-width="1.5"></path><path d="M649.09 553.25L821.36 513.59" stroke="#132e65" stroke-width="1.5"></path><path d="M649.09 553.25L787.79 676.36" stroke="#132e65" stroke-width="1.5"></path><path d="M701.29 662.34L701.29 662.34" stroke="#132e65" stroke-width="1.5"></path><path d="M701.29 662.34L787.79 676.36" stroke="#132e65" stroke-width="1.5"></path><path d="M701.29 662.34L821.36 513.59" stroke="#132e65" stroke-width="1.5"></path><path d="M701.29 662.34L557.04 504.03" stroke="#132e65" stroke-width="1.5"></path><path d="M701.29 662.34L711.91 411.14" stroke="#132e65" stroke-width="1.5"></path><path d="M861.81 61.58L861.81 61.58" stroke="#132e65" stroke-width="1.5"></path><path d="M861.81 61.58L982.14 111.81" stroke="#132e65" stroke-width="1.5"></path><path d="M861.81 61.58L989.68 -41.9" stroke="#132e65" stroke-width="1.5"></path><path d="M861.81 61.58L974.99 225.39" stroke="#132e65" stroke-width="1.5"></path><path d="M861.81 61.58L805.62 254.51" stroke="#132e65" stroke-width="1.5"></path><path d="M861.81 61.58L1105.35 64.28" stroke="#132e65" stroke-width="1.5"></path><path d="M861.81 61.58L1088.02 -46.83" stroke="#132e65" stroke-width="1.5"></path><path d="M805.62 254.51L805.62 254.51" stroke="#132e65" stroke-width="1.5"></path><path d="M805.62 254.51L843.4 388.78" stroke="#132e65" stroke-width="1.5"></path><path d="M843.4 388.78L843.4 388.78" stroke="#132e65" stroke-width="1.5"></path><path d="M843.4 388.78L821.36 513.59" stroke="#132e65" stroke-width="1.5"></path><path d="M843.4 388.78L982.05 390.29" stroke="#132e65" stroke-width="1.5"></path><path d="M821.36 513.59L821.36 513.59" stroke="#132e65" stroke-width="1.5"></path><path d="M821.36 513.59L984.15 519.12" stroke="#132e65" stroke-width="1.5"></path><path d="M821.36 513.59L787.79 676.36" stroke="#132e65" stroke-width="1.5"></path><path d="M787.79 676.36L787.79 676.36" stroke="#132e65" stroke-width="1.5"></path><path d="M787.79 676.36L972.56 678.34" stroke="#132e65" stroke-width="1.5"></path><path d="M787.79 676.36L984.15 519.12" stroke="#132e65" stroke-width="1.5"></path><path d="M787.79 676.36L711.91 411.14" stroke="#132e65" stroke-width="1.5"></path><path d="M989.68 -41.9L989.68 -41.9" stroke="#132e65" stroke-width="1.5"></path><path d="M989.68 -41.9L1088.02 -46.83" stroke="#132e65" stroke-width="1.5"></path><path d="M989.68 -41.9L982.14 111.81" stroke="#132e65" stroke-width="1.5"></path><path d="M989.68 -41.9L1105.35 64.28" stroke="#132e65" stroke-width="1.5"></path><path d="M982.14 111.81L982.14 111.81" stroke="#132e65" stroke-width="1.5"></path><path d="M982.14 111.81L974.99 225.39" stroke="#132e65" stroke-width="1.5"></path><path d="M982.14 111.81L1105.35 64.28" stroke="#132e65" stroke-width="1.5"></path><path d="M982.14 111.81L1088.02 -46.83" stroke="#132e65" stroke-width="1.5"></path><path d="M974.99 225.39L974.99 225.39" stroke="#132e65" stroke-width="1.5"></path><path d="M974.99 225.39L982.05 390.29" stroke="#132e65" stroke-width="1.5"></path><path d="M974.99 225.39L805.62 254.51" stroke="#132e65" stroke-width="1.5"></path><path d="M974.99 225.39L1157.47 241.91" stroke="#132e65" stroke-width="1.5"></path><path d="M982.05 390.29L982.05 390.29" stroke="#132e65" stroke-width="1.5"></path><path d="M982.05 390.29L984.15 519.12" stroke="#132e65" stroke-width="1.5"></path><path d="M984.15 519.12L984.15 519.12" stroke="#132e65" stroke-width="1.5"></path><path d="M984.15 519.12L1105.63 535.1" stroke="#132e65" stroke-width="1.5"></path><path d="M984.15 519.12L972.56 678.34" stroke="#132e65" stroke-width="1.5"></path><path d="M972.56 678.34L972.56 678.34" stroke="#132e65" stroke-width="1.5"></path><path d="M1088.02 -46.83L1088.02 -46.83" stroke="#132e65" stroke-width="1.5"></path><path d="M1088.02 -46.83L1105.35 64.28" stroke="#132e65" stroke-width="1.5"></path><path d="M1088.02 -46.83L1263.58 44.52" stroke="#132e65" stroke-width="1.5"></path><path d="M1088.02 -46.83L1310.5 -47.26" stroke="#132e65" stroke-width="1.5"></path><path d="M1105.35 64.28L1105.35 64.28" stroke="#132e65" stroke-width="1.5"></path><path d="M1105.35 64.28L1263.58 44.52" stroke="#132e65" stroke-width="1.5"></path><path d="M1157.47 241.91L1157.47 241.91" stroke="#132e65" stroke-width="1.5"></path><path d="M1157.47 241.91L1307.54 193.61" stroke="#132e65" stroke-width="1.5"></path><path d="M1157.47 241.91L1130.83 406.91" stroke="#132e65" stroke-width="1.5"></path><path d="M1157.47 241.91L1105.35 64.28" stroke="#132e65" stroke-width="1.5"></path><path d="M1130.83 406.91L1130.83 406.91" stroke="#132e65" stroke-width="1.5"></path><path d="M1130.83 406.91L1105.63 535.1" stroke="#132e65" stroke-width="1.5"></path><path d="M1105.63 535.1L1105.63 535.1" stroke="#132e65" stroke-width="1.5"></path><path d="M1105.63 535.1L1282.82 523.51" stroke="#132e65" stroke-width="1.5"></path><path d="M1310.5 -47.26L1310.5 -47.26" stroke="#132e65" stroke-width="1.5"></path><path d="M1310.5 -47.26L1263.58 44.52" stroke="#132e65" stroke-width="1.5"></path><path d="M1310.5 -47.26L1412.25 -85.47" stroke="#132e65" stroke-width="1.5"></path><path d="M1310.5 -47.26L1460.66 60.14" stroke="#132e65" stroke-width="1.5"></path><path d="M1263.58 44.52L1263.58 44.52" stroke="#132e65" stroke-width="1.5"></path><path d="M1263.58 44.52L1307.54 193.61" stroke="#132e65" stroke-width="1.5"></path><path d="M1263.58 44.52L1412.25 -85.47" stroke="#132e65" stroke-width="1.5"></path><path d="M1307.54 193.61L1307.54 193.61" stroke="#132e65" stroke-width="1.5"></path><path d="M1307.54 193.61L1429.11 221.29" stroke="#132e65" stroke-width="1.5"></path><path d="M1307.54 193.61L1460.66 60.14" stroke="#132e65" stroke-width="1.5"></path><path d="M1307.54 193.61L1451.77 349.74" stroke="#132e65" stroke-width="1.5"></path><path d="M1305.67 409.42L1305.67 409.42" stroke="#132e65" stroke-width="1.5"></path><path d="M1305.67 409.42L1282.82 523.51" stroke="#132e65" stroke-width="1.5"></path><path d="M1305.67 409.42L1451.77 349.74" stroke="#132e65" stroke-width="1.5"></path><path d="M1305.67 409.42L1130.83 406.91" stroke="#132e65" stroke-width="1.5"></path><path d="M1282.82 523.51L1282.82 523.51" stroke="#132e65" stroke-width="1.5"></path><path d="M1282.82 523.51L1281.2 638.61" stroke="#132e65" stroke-width="1.5"></path><path d="M1281.2 638.61L1281.2 638.61" stroke="#132e65" stroke-width="1.5"></path><path d="M1281.2 638.61L1408.64 708.27" stroke="#132e65" stroke-width="1.5"></path><path d="M1412.25 -85.47L1412.25 -85.47" stroke="#132e65" stroke-width="1.5"></path><path d="M1412.25 -85.47L1556.52 -85.33" stroke="#132e65" stroke-width="1.5"></path><path d="M1412.25 -85.47L1460.66 60.14" stroke="#132e65" stroke-width="1.5"></path><path d="M1412.25 -85.47L1600.22 111.16" stroke="#132e65" stroke-width="1.5"></path><path d="M1412.25 -85.47L1307.54 193.61" stroke="#132e65" stroke-width="1.5"></path><path d="M1460.66 60.14L1460.66 60.14" stroke="#132e65" stroke-width="1.5"></path><path d="M1460.66 60.14L1600.22 111.16" stroke="#132e65" stroke-width="1.5"></path><path d="M1460.66 60.14L1429.11 221.29" stroke="#132e65" stroke-width="1.5"></path><path d="M1460.66 60.14L1556.52 -85.33" stroke="#132e65" stroke-width="1.5"></path><path d="M1460.66 60.14L1263.58 44.52" stroke="#132e65" stroke-width="1.5"></path><path d="M1429.11 221.29L1429.11 221.29" stroke="#132e65" stroke-width="1.5"></path><path d="M1429.11 221.29L1451.77 349.74" stroke="#132e65" stroke-width="1.5"></path><path d="M1451.77 349.74L1451.77 349.74" stroke="#132e65" stroke-width="1.5"></path><path d="M1451.77 349.74L1588.01 370.65" stroke="#132e65" stroke-width="1.5"></path><path d="M1451.77 349.74L1282.82 523.51" stroke="#132e65" stroke-width="1.5"></path><path d="M1451.77 349.74L1600.22 111.16" stroke="#132e65" stroke-width="1.5"></path><path d="M1408.64 708.27L1408.64 708.27" stroke="#132e65" stroke-width="1.5"></path><path d="M1408.64 708.27L1609.48 684.97" stroke="#132e65" stroke-width="1.5"></path><path d="M1408.64 708.27L1282.82 523.51" stroke="#132e65" stroke-width="1.5"></path><path d="M1408.64 708.27L1305.67 409.42" stroke="#132e65" stroke-width="1.5"></path><path d="M1556.52 -85.33L1556.52 -85.33" stroke="#132e65" stroke-width="1.5"></path><path d="M1556.52 -85.33L1600.22 111.16" stroke="#132e65" stroke-width="1.5"></path><path d="M1556.52 -85.33L1310.5 -47.26" stroke="#132e65" stroke-width="1.5"></path><path d="M1556.52 -85.33L1263.58 44.52" stroke="#132e65" stroke-width="1.5"></path><path d="M1600.22 111.16L1600.22 111.16" stroke="#132e65" stroke-width="1.5"></path><path d="M1600.22 111.16L1429.11 221.29" stroke="#132e65" stroke-width="1.5"></path><path d="M1600.22 111.16L1588.01 370.65" stroke="#132e65" stroke-width="1.5"></path><path d="M1588.01 370.65L1588.01 370.65" stroke="#132e65" stroke-width="1.5"></path><path d="M1588.01 370.65L1429.11 221.29" stroke="#132e65" stroke-width="1.5"></path><path d="M1609.48 684.97L1609.48 684.97" stroke="#132e65" stroke-width="1.5"></path><path d="M1609.48 684.97L1588.01 370.65" stroke="#132e65" stroke-width="1.5"></path><path d="M1609.48 684.97L1281.2 638.61" stroke="#132e65" stroke-width="1.5"></path><path d="M1609.48 684.97L1282.82 523.51" stroke="#132e65" stroke-width="1.5"></path><path d="M1609.48 684.97L1451.77 349.74" stroke="#132e65" stroke-width="1.5"></path><circle r="5" cx="-90.86" cy="394.89" fill="#132e65"></circle><circle r="5" cx="-79.06" cy="491.62" fill="#132e65"></circle><circle r="5" cx="40.13" cy="407.33" fill="#132e65"></circle><circle r="5" cx="37.71" cy="517.6" fill="#132e65"></circle><circle r="5" cx="105.21" cy="662.99" fill="#132e65"></circle><circle r="5" cx="193.27" cy="400.78" fill="#132e65"></circle><circle r="5" cx="209.92" cy="500.46" fill="#132e65"></circle><circle r="5" cx="200.51" cy="680.36" fill="#132e65"></circle><circle r="5" cx="379.64" cy="377.96" fill="#132e65"></circle><circle r="5" cx="410.74" cy="489.62" fill="#132e65"></circle><circle r="5" cx="362.94" cy="663.94" fill="#132e65"></circle><circle r="5" cx="544.35" cy="342.58" fill="#132e65"></circle><circle r="5" cx="557.04" cy="504.03" fill="#132e65"></circle><circle r="5" cx="493.02" cy="695.3" fill="#132e65"></circle><circle r="5" cx="711.91" cy="411.14" fill="#132e65"></circle><circle r="5" cx="649.09" cy="553.25" fill="#132e65"></circle><circle r="5" cx="701.29" cy="662.34" fill="#132e65"></circle><circle r="5" cx="861.81" cy="61.58" fill="#132e65"></circle><circle r="5" cx="805.62" cy="254.51" fill="#132e65"></circle><circle r="5" cx="843.4" cy="388.78" fill="#132e65"></circle><circle r="5" cx="821.36" cy="513.59" fill="#132e65"></circle><circle r="5" cx="787.79" cy="676.36" fill="#132e65"></circle><circle r="5" cx="989.68" cy="-41.9" fill="#132e65"></circle><circle r="5" cx="982.14" cy="111.81" fill="#132e65"></circle><circle r="5" cx="974.99" cy="225.39" fill="#132e65"></circle><circle r="5" cx="982.05" cy="390.29" fill="#132e65"></circle><circle r="5" cx="984.15" cy="519.12" fill="#132e65"></circle><circle r="5" cx="972.56" cy="678.34" fill="#132e65"></circle><circle r="5" cx="1088.02" cy="-46.83" fill="#132e65"></circle><circle r="5" cx="1105.35" cy="64.28" fill="#132e65"></circle><circle r="5" cx="1157.47" cy="241.91" fill="#132e65"></circle><circle r="5" cx="1130.83" cy="406.91" fill="#132e65"></circle><circle r="5" cx="1105.63" cy="535.1" fill="#132e65"></circle><circle r="5" cx="1310.5" cy="-47.26" fill="#132e65"></circle><circle r="5" cx="1263.58" cy="44.52" fill="#132e65"></circle><circle r="5" cx="1307.54" cy="193.61" fill="#132e65"></circle><circle r="5" cx="1305.67" cy="409.42" fill="#132e65"></circle><circle r="5" cx="1282.82" cy="523.51" fill="#132e65"></circle><circle r="5" cx="1281.2" cy="638.61" fill="#132e65"></circle><circle r="5" cx="1412.25" cy="-85.47" fill="#132e65"></circle><circle r="5" cx="1460.66" cy="60.14" fill="#132e65"></circle><circle r="5" cx="1429.11" cy="221.29" fill="#132e65"></circle><circle r="5" cx="1451.77" cy="349.74" fill="#132e65"></circle><circle r="5" cx="1408.64" cy="708.27" fill="#132e65"></circle><circle r="5" cx="1556.52" cy="-85.33" fill="#132e65"></circle><circle r="5" cx="1600.22" cy="111.16" fill="#132e65"></circle><circle r="5" cx="1588.01" cy="370.65" fill="#132e65"></circle><circle r="5" cx="1609.48" cy="684.97" fill="#132e65"></circle><path d="M556.19 410.93L556.19 410.93" stroke="hsl(228.5, 77.2%, 51.5%)" stroke-width="1.5"></path><path d="M556.19 410.93L517.98 496.76" stroke="hsl(228.5, 77.2%, 51.5%)" stroke-width="1.5"></path><path d="M556.19 410.93L704.51 367.28" stroke="hsl(228.5, 77.2%, 51.5%)" stroke-width="1.5"></path><path d="M556.19 410.93L655.98 558.59" stroke="hsl(228.5, 77.2%, 51.5%)" stroke-width="1.5"></path><path d="M556.19 410.93L394.02 554.09" stroke="hsl(228.5, 77.2%, 51.5%)" stroke-width="1.5"></path><path d="M556.19 410.93L557.5 648.33" stroke="hsl(228.5, 77.2%, 51.5%)" stroke-width="1.5"></path><path d="M700.12 711.22L700.12 711.22" stroke="hsl(228.5, 77.2%, 51.5%)" stroke-width="1.5"></path><path d="M700.12 711.22L794.08 657.28" stroke="hsl(228.5, 77.2%, 51.5%)" stroke-width="1.5"></path><path d="M700.12 711.22L557.5 648.33" stroke="hsl(228.5, 77.2%, 51.5%)" stroke-width="1.5"></path><path d="M700.12 711.22L655.98 558.59" stroke="hsl(228.5, 77.2%, 51.5%)" stroke-width="1.5"></path><path d="M700.12 711.22L828.51 528.45" stroke="hsl(228.5, 77.2%, 51.5%)" stroke-width="1.5"></path><path d="M700.12 711.22L517.98 496.76" stroke="hsl(228.5, 77.2%, 51.5%)" stroke-width="1.5"></path><path d="M700.12 711.22L969.5 555.34" stroke="hsl(228.5, 77.2%, 51.5%)" stroke-width="1.5"></path><path d="M828.51 528.45L828.51 528.45" stroke="hsl(228.5, 77.2%, 51.5%)" stroke-width="1.5"></path><path d="M828.51 528.45L794.08 657.28" stroke="hsl(228.5, 77.2%, 51.5%)" stroke-width="1.5"></path><path d="M828.51 528.45L847.34 387.22" stroke="hsl(228.5, 77.2%, 51.5%)" stroke-width="1.5"></path><path d="M828.51 528.45L969.5 555.34" stroke="hsl(228.5, 77.2%, 51.5%)" stroke-width="1.5"></path><path d="M828.51 528.45L655.98 558.59" stroke="hsl(228.5, 77.2%, 51.5%)" stroke-width="1.5"></path><path d="M828.51 528.45L704.51 367.28" stroke="hsl(228.5, 77.2%, 51.5%)" stroke-width="1.5"></path><path d="M941.29 338.41L941.29 338.41" stroke="hsl(228.5, 77.2%, 51.5%)" stroke-width="1.5"></path><path d="M941.29 338.41L847.34 387.22" stroke="hsl(228.5, 77.2%, 51.5%)" stroke-width="1.5"></path><path d="M941.29 338.41L1109.42 258.79" stroke="hsl(228.5, 77.2%, 51.5%)" stroke-width="1.5"></path><path d="M941.29 338.41L1129.32 402.03" stroke="hsl(228.5, 77.2%, 51.5%)" stroke-width="1.5"></path><path d="M941.29 338.41L969.5 555.34" stroke="hsl(228.5, 77.2%, 51.5%)" stroke-width="1.5"></path><path d="M941.29 338.41L828.51 528.45" stroke="hsl(228.5, 77.2%, 51.5%)" stroke-width="1.5"></path><path d="M941.29 338.41L1091.8 521.74" stroke="hsl(228.5, 77.2%, 51.5%)" stroke-width="1.5"></path><path d="M1312.41 106.18L1312.41 106.18" stroke="hsl(228.5, 77.2%, 51.5%)" stroke-width="1.5"></path><path d="M1312.41 106.18L1387.96 92.56" stroke="hsl(228.5, 77.2%, 51.5%)" stroke-width="1.5"></path><path d="M1312.41 106.18L1311.76 256.01" stroke="hsl(228.5, 77.2%, 51.5%)" stroke-width="1.5"></path><path d="M1312.41 106.18L1159.5 108.38" stroke="hsl(228.5, 77.2%, 51.5%)" stroke-width="1.5"></path><path d="M1312.41 106.18L1458.39 248.36" stroke="hsl(228.5, 77.2%, 51.5%)" stroke-width="1.5"></path><path d="M1240.37 507.2L1240.37 507.2" stroke="hsl(228.5, 77.2%, 51.5%)" stroke-width="1.5"></path><path d="M1240.37 507.2L1278.94 649.84" stroke="hsl(228.5, 77.2%, 51.5%)" stroke-width="1.5"></path><path d="M1240.37 507.2L1091.8 521.74" stroke="hsl(228.5, 77.2%, 51.5%)" stroke-width="1.5"></path><path d="M1278.94 649.84L1278.94 649.84" stroke="hsl(228.5, 77.2%, 51.5%)" stroke-width="1.5"></path><path d="M1278.94 649.84L1390.01 666.06" stroke="hsl(228.5, 77.2%, 51.5%)" stroke-width="1.5"></path><path d="M1278.94 649.84L1158.1 647.71" stroke="hsl(228.5, 77.2%, 51.5%)" stroke-width="1.5"></path><path d="M1278.94 649.84L1433.76 522.02" stroke="hsl(228.5, 77.2%, 51.5%)" stroke-width="1.5"></path><path d="M1278.94 649.84L1091.8 521.74" stroke="hsl(228.5, 77.2%, 51.5%)" stroke-width="1.5"></path><path d="M1278.94 649.84L1129.32 402.03" stroke="hsl(228.5, 77.2%, 51.5%)" stroke-width="1.5"></path><path d="M1540.51 345.02L1540.51 345.02" stroke="hsl(228.5, 77.2%, 51.5%)" stroke-width="1.5"></path><path d="M1540.51 345.02L1445.61 380.67" stroke="hsl(228.5, 77.2%, 51.5%)" stroke-width="1.5"></path><path d="M1540.51 345.02L1595.79 237.22" stroke="hsl(228.5, 77.2%, 51.5%)" stroke-width="1.5"></path><path d="M-62.97 549.86L-62.97 549.86" stroke="hsl(228.5, 77.2%, 51.5%)" stroke-width="1.5"></path><path d="M-62.97 549.86L112.24 510.8" stroke="hsl(228.5, 77.2%, 51.5%)" stroke-width="1.5"></path><path d="M-62.97 549.86L84.21 706.43" stroke="hsl(228.5, 77.2%, 51.5%)" stroke-width="1.5"></path><path d="M-62.97 549.86L201.78 523.86" stroke="hsl(228.5, 77.2%, 51.5%)" stroke-width="1.5"></path><path d="M112.24 510.8L112.24 510.8" stroke="hsl(228.5, 77.2%, 51.5%)" stroke-width="1.5"></path><path d="M112.24 510.8L201.78 523.86" stroke="hsl(228.5, 77.2%, 51.5%)" stroke-width="1.5"></path><path d="M112.24 510.8L84.21 706.43" stroke="hsl(228.5, 77.2%, 51.5%)" stroke-width="1.5"></path><path d="M112.24 510.8L229.78 687.25" stroke="hsl(228.5, 77.2%, 51.5%)" stroke-width="1.5"></path><path d="M84.21 706.43L84.21 706.43" stroke="hsl(228.5, 77.2%, 51.5%)" stroke-width="1.5"></path><path d="M84.21 706.43L229.78 687.25" stroke="hsl(228.5, 77.2%, 51.5%)" stroke-width="1.5"></path><path d="M201.78 523.86L201.78 523.86" stroke="hsl(228.5, 77.2%, 51.5%)" stroke-width="1.5"></path><path d="M201.78 523.86L229.78 687.25" stroke="hsl(228.5, 77.2%, 51.5%)" stroke-width="1.5"></path><path d="M201.78 523.86L394.02 554.09" stroke="hsl(228.5, 77.2%, 51.5%)" stroke-width="1.5"></path><path d="M201.78 523.86L84.21 706.43" stroke="hsl(228.5, 77.2%, 51.5%)" stroke-width="1.5"></path><path d="M201.78 523.86L382.68 705.21" stroke="hsl(228.5, 77.2%, 51.5%)" stroke-width="1.5"></path><path d="M229.78 687.25L229.78 687.25" stroke="hsl(228.5, 77.2%, 51.5%)" stroke-width="1.5"></path><path d="M229.78 687.25L382.68 705.21" stroke="hsl(228.5, 77.2%, 51.5%)" stroke-width="1.5"></path><path d="M229.78 687.25L394.02 554.09" stroke="hsl(228.5, 77.2%, 51.5%)" stroke-width="1.5"></path><path d="M229.78 687.25L-62.97 549.86" stroke="hsl(228.5, 77.2%, 51.5%)" stroke-width="1.5"></path><path d="M394.02 554.09L394.02 554.09" stroke="hsl(228.5, 77.2%, 51.5%)" stroke-width="1.5"></path><path d="M394.02 554.09L517.98 496.76" stroke="hsl(228.5, 77.2%, 51.5%)" stroke-width="1.5"></path><path d="M394.02 554.09L382.68 705.21" stroke="hsl(228.5, 77.2%, 51.5%)" stroke-width="1.5"></path><path d="M394.02 554.09L557.5 648.33" stroke="hsl(228.5, 77.2%, 51.5%)" stroke-width="1.5"></path><path d="M382.68 705.21L382.68 705.21" stroke="hsl(228.5, 77.2%, 51.5%)" stroke-width="1.5"></path><path d="M382.68 705.21L557.5 648.33" stroke="hsl(228.5, 77.2%, 51.5%)" stroke-width="1.5"></path><path d="M517.98 496.76L517.98 496.76" stroke="hsl(228.5, 77.2%, 51.5%)" stroke-width="1.5"></path><path d="M517.98 496.76L655.98 558.59" stroke="hsl(228.5, 77.2%, 51.5%)" stroke-width="1.5"></path><path d="M557.5 648.33L557.5 648.33" stroke="hsl(228.5, 77.2%, 51.5%)" stroke-width="1.5"></path><path d="M557.5 648.33L655.98 558.59" stroke="hsl(228.5, 77.2%, 51.5%)" stroke-width="1.5"></path><path d="M557.5 648.33L517.98 496.76" stroke="hsl(228.5, 77.2%, 51.5%)" stroke-width="1.5"></path><path d="M704.51 367.28L704.51 367.28" stroke="hsl(228.5, 77.2%, 51.5%)" stroke-width="1.5"></path><path d="M704.51 367.28L847.34 387.22" stroke="hsl(228.5, 77.2%, 51.5%)" stroke-width="1.5"></path><path d="M704.51 367.28L655.98 558.59" stroke="hsl(228.5, 77.2%, 51.5%)" stroke-width="1.5"></path><path d="M655.98 558.59L655.98 558.59" stroke="hsl(228.5, 77.2%, 51.5%)" stroke-width="1.5"></path><path d="M655.98 558.59L794.08 657.28" stroke="hsl(228.5, 77.2%, 51.5%)" stroke-width="1.5"></path><path d="M847.34 387.22L847.34 387.22" stroke="hsl(228.5, 77.2%, 51.5%)" stroke-width="1.5"></path><path d="M847.34 387.22L969.5 555.34" stroke="hsl(228.5, 77.2%, 51.5%)" stroke-width="1.5"></path><path d="M847.34 387.22L655.98 558.59" stroke="hsl(228.5, 77.2%, 51.5%)" stroke-width="1.5"></path><path d="M794.08 657.28L794.08 657.28" stroke="hsl(228.5, 77.2%, 51.5%)" stroke-width="1.5"></path><path d="M969.5 555.34L969.5 555.34" stroke="hsl(228.5, 77.2%, 51.5%)" stroke-width="1.5"></path><path d="M969.5 555.34L1091.8 521.74" stroke="hsl(228.5, 77.2%, 51.5%)" stroke-width="1.5"></path><path d="M969.5 555.34L794.08 657.28" stroke="hsl(228.5, 77.2%, 51.5%)" stroke-width="1.5"></path><path d="M1159.5 108.38L1159.5 108.38" stroke="hsl(228.5, 77.2%, 51.5%)" stroke-width="1.5"></path><path d="M1159.5 108.38L1109.42 258.79" stroke="hsl(228.5, 77.2%, 51.5%)" stroke-width="1.5"></path><path d="M1159.5 108.38L1311.76 256.01" stroke="hsl(228.5, 77.2%, 51.5%)" stroke-width="1.5"></path><path d="M1159.5 108.38L1253.87 -95.53" stroke="hsl(228.5, 77.2%, 51.5%)" stroke-width="1.5"></path><path d="M1159.5 108.38L1387.96 92.56" stroke="hsl(228.5, 77.2%, 51.5%)" stroke-width="1.5"></path><path d="M1109.42 258.79L1109.42 258.79" stroke="hsl(228.5, 77.2%, 51.5%)" stroke-width="1.5"></path><path d="M1109.42 258.79L1129.32 402.03" stroke="hsl(228.5, 77.2%, 51.5%)" stroke-width="1.5"></path><path d="M1129.32 402.03L1129.32 402.03" stroke="hsl(228.5, 77.2%, 51.5%)" stroke-width="1.5"></path><path d="M1129.32 402.03L1091.8 521.74" stroke="hsl(228.5, 77.2%, 51.5%)" stroke-width="1.5"></path><path d="M1091.8 521.74L1091.8 521.74" stroke="hsl(228.5, 77.2%, 51.5%)" stroke-width="1.5"></path><path d="M1158.1 647.71L1158.1 647.71" stroke="hsl(228.5, 77.2%, 51.5%)" stroke-width="1.5"></path><path d="M1158.1 647.71L1091.8 521.74" stroke="hsl(228.5, 77.2%, 51.5%)" stroke-width="1.5"></path><path d="M1253.87 -95.53L1253.87 -95.53" stroke="hsl(228.5, 77.2%, 51.5%)" stroke-width="1.5"></path><path d="M1253.87 -95.53L1441.43 -99.4" stroke="hsl(228.5, 77.2%, 51.5%)" stroke-width="1.5"></path><path d="M1253.87 -95.53L1312.41 106.18" stroke="hsl(228.5, 77.2%, 51.5%)" stroke-width="1.5"></path><path d="M1311.76 256.01L1311.76 256.01" stroke="hsl(228.5, 77.2%, 51.5%)" stroke-width="1.5"></path><path d="M1311.76 256.01L1458.39 248.36" stroke="hsl(228.5, 77.2%, 51.5%)" stroke-width="1.5"></path><path d="M1441.43 -99.4L1441.43 -99.4" stroke="hsl(228.5, 77.2%, 51.5%)" stroke-width="1.5"></path><path d="M1441.43 -99.4L1610.4 -53.66" stroke="hsl(228.5, 77.2%, 51.5%)" stroke-width="1.5"></path><path d="M1441.43 -99.4L1387.96 92.56" stroke="hsl(228.5, 77.2%, 51.5%)" stroke-width="1.5"></path><path d="M1441.43 -99.4L1602.98 73.65" stroke="hsl(228.5, 77.2%, 51.5%)" stroke-width="1.5"></path><path d="M1441.43 -99.4L1312.41 106.18" stroke="hsl(228.5, 77.2%, 51.5%)" stroke-width="1.5"></path><path d="M1441.43 -99.4L1458.39 248.36" stroke="hsl(228.5, 77.2%, 51.5%)" stroke-width="1.5"></path><path d="M1387.96 92.56L1387.96 92.56" stroke="hsl(228.5, 77.2%, 51.5%)" stroke-width="1.5"></path><path d="M1387.96 92.56L1458.39 248.36" stroke="hsl(228.5, 77.2%, 51.5%)" stroke-width="1.5"></path><path d="M1387.96 92.56L1311.76 256.01" stroke="hsl(228.5, 77.2%, 51.5%)" stroke-width="1.5"></path><path d="M1458.39 248.36L1458.39 248.36" stroke="hsl(228.5, 77.2%, 51.5%)" stroke-width="1.5"></path><path d="M1458.39 248.36L1540.51 345.02" stroke="hsl(228.5, 77.2%, 51.5%)" stroke-width="1.5"></path><path d="M1458.39 248.36L1445.61 380.67" stroke="hsl(228.5, 77.2%, 51.5%)" stroke-width="1.5"></path><path d="M1458.39 248.36L1595.79 237.22" stroke="hsl(228.5, 77.2%, 51.5%)" stroke-width="1.5"></path><path d="M1445.61 380.67L1445.61 380.67" stroke="hsl(228.5, 77.2%, 51.5%)" stroke-width="1.5"></path><path d="M1433.76 522.02L1433.76 522.02" stroke="hsl(228.5, 77.2%, 51.5%)" stroke-width="1.5"></path><path d="M1433.76 522.02L1550.1 525.37" stroke="hsl(228.5, 77.2%, 51.5%)" stroke-width="1.5"></path><path d="M1433.76 522.02L1445.61 380.67" stroke="hsl(228.5, 77.2%, 51.5%)" stroke-width="1.5"></path><path d="M1433.76 522.02L1390.01 666.06" stroke="hsl(228.5, 77.2%, 51.5%)" stroke-width="1.5"></path><path d="M1390.01 666.06L1390.01 666.06" stroke="hsl(228.5, 77.2%, 51.5%)" stroke-width="1.5"></path><path d="M1610.4 -53.66L1610.4 -53.66" stroke="hsl(228.5, 77.2%, 51.5%)" stroke-width="1.5"></path><path d="M1610.4 -53.66L1602.98 73.65" stroke="hsl(228.5, 77.2%, 51.5%)" stroke-width="1.5"></path><path d="M1610.4 -53.66L1387.96 92.56" stroke="hsl(228.5, 77.2%, 51.5%)" stroke-width="1.5"></path><path d="M1610.4 -53.66L1595.79 237.22" stroke="hsl(228.5, 77.2%, 51.5%)" stroke-width="1.5"></path><path d="M1610.4 -53.66L1458.39 248.36" stroke="hsl(228.5, 77.2%, 51.5%)" stroke-width="1.5"></path><path d="M1610.4 -53.66L1312.41 106.18" stroke="hsl(228.5, 77.2%, 51.5%)" stroke-width="1.5"></path><path d="M1602.98 73.65L1602.98 73.65" stroke="hsl(228.5, 77.2%, 51.5%)" stroke-width="1.5"></path><path d="M1602.98 73.65L1595.79 237.22" stroke="hsl(228.5, 77.2%, 51.5%)" stroke-width="1.5"></path><path d="M1595.79 237.22L1595.79 237.22" stroke="hsl(228.5, 77.2%, 51.5%)" stroke-width="1.5"></path><path d="M1550.1 525.37L1550.1 525.37" stroke="hsl(228.5, 77.2%, 51.5%)" stroke-width="1.5"></path><path d="M1550.1 525.37L1445.61 380.67" stroke="hsl(228.5, 77.2%, 51.5%)" stroke-width="1.5"></path><path d="M1550.1 525.37L1540.51 345.02" stroke="hsl(228.5, 77.2%, 51.5%)" stroke-width="1.5"></path><path d="M1550.1 525.37L1390.01 666.06" stroke="hsl(228.5, 77.2%, 51.5%)" stroke-width="1.5"></path><circle r="25" cx="556.19" cy="410.93" fill="url(#SvgjsRadialGradient1001)"></circle><circle r="25" cx="700.12" cy="711.22" fill="url(#SvgjsRadialGradient1001)"></circle><circle r="25" cx="828.51" cy="528.45" fill="url(#SvgjsRadialGradient1001)"></circle><circle r="25" cx="941.29" cy="338.41" fill="url(#SvgjsRadialGradient1001)"></circle><circle r="25" cx="1312.41" cy="106.18" fill="url(#SvgjsRadialGradient1001)"></circle><circle r="25" cx="1240.37" cy="507.2" fill="url(#SvgjsRadialGradient1001)"></circle><circle r="25" cx="1278.94" cy="649.84" fill="url(#SvgjsRadialGradient1001)"></circle><circle r="25" cx="1540.51" cy="345.02" fill="url(#SvgjsRadialGradient1001)"></circle><circle r="5" cx="-62.97" cy="549.86" fill="#8b9ad9"></circle><circle r="5" cx="112.24" cy="510.8" fill="#8b9ad9"></circle><circle r="5" cx="84.21" cy="706.43" fill="#8b9ad9"></circle><circle r="5" cx="201.78" cy="523.86" fill="#8b9ad9"></circle><circle r="5" cx="229.78" cy="687.25" fill="#8b9ad9"></circle><circle r="5" cx="394.02" cy="554.09" fill="#8b9ad9"></circle><circle r="5" cx="382.68" cy="705.21" fill="#8b9ad9"></circle><circle r="5" cx="517.98" cy="496.76" fill="#8b9ad9"></circle><circle r="5" cx="557.5" cy="648.33" fill="#8b9ad9"></circle><circle r="5" cx="704.51" cy="367.28" fill="#8b9ad9"></circle><circle r="5" cx="655.98" cy="558.59" fill="#8b9ad9"></circle><circle r="5" cx="847.34" cy="387.22" fill="#8b9ad9"></circle><circle r="5" cx="794.08" cy="657.28" fill="#8b9ad9"></circle><circle r="5" cx="969.5" cy="555.34" fill="#8b9ad9"></circle><circle r="5" cx="1159.5" cy="108.38" fill="#8b9ad9"></circle><circle r="5" cx="1109.42" cy="258.79" fill="#8b9ad9"></circle><circle r="5" cx="1129.32" cy="402.03" fill="#8b9ad9"></circle><circle r="5" cx="1091.8" cy="521.74" fill="#8b9ad9"></circle><circle r="5" cx="1158.1" cy="647.71" fill="#8b9ad9"></circle><circle r="5" cx="1253.87" cy="-95.53" fill="#8b9ad9"></circle><circle r="5" cx="1311.76" cy="256.01" fill="#8b9ad9"></circle><circle r="5" cx="1441.43" cy="-99.4" fill="#8b9ad9"></circle><circle r="5" cx="1387.96" cy="92.56" fill="#8b9ad9"></circle><circle r="5" cx="1458.39" cy="248.36" fill="#8b9ad9"></circle><circle r="5" cx="1445.61" cy="380.67" fill="#8b9ad9"></circle><circle r="5" cx="1433.76" cy="522.02" fill="#8b9ad9"></circle><circle r="5" cx="1390.01" cy="666.06" fill="#8b9ad9"></circle><circle r="5" cx="1610.4" cy="-53.66" fill="#8b9ad9"></circle><circle r="5" cx="1602.98" cy="73.65" fill="#8b9ad9"></circle><circle r="5" cx="1595.79" cy="237.22" fill="#8b9ad9"></circle><circle r="5" cx="1550.1" cy="525.37" fill="#8b9ad9"></circle></g><defs><mask id="SvgjsMask1000"><rect width="1440" height="560" fill="#ffffff"></rect></mask><radialGradient id="SvgjsRadialGradient1001"><stop stop-color="#ffffff" offset="0.1"></stop><stop stop-color="#1735b3" offset="0.2"></stop><stop stop-color="rgba(23, 53, 179, 0)" offset="1"></stop></radialGradient></defs></svg>