<svg xmlns="http://www.w3.org/2000/svg" version="1.1" xmlns:xlink="http://www.w3.org/1999/xlink" xmlns:svgjs="http://svgjs.com/svgjs" width="1440" height="560" preserveAspectRatio="none" viewBox="0 0 1440 560"><g mask="url(&quot;#SvgjsMask1000&quot;)" fill="none"><rect width="1440" height="560" x="0" y="0" fill="#0e2a47"></rect><path d="M0,546.448C100.55,531.968,181.273,468.963,271.948,423.159C374.717,371.246,504.345,355.309,568.136,259.459C634.157,160.257,629.723,29.847,612.147,-88.013C594.633,-205.46,548.523,-318.21,468.859,-406.269C390.168,-493.252,285.818,-562.111,169.509,-577.296C59.77,-591.623,-43.039,-534.16,-142.736,-486.115C-228.685,-444.695,-311.552,-395.731,-367.55,-318.484C-420.78,-245.055,-431.507,-153.576,-448.394,-64.469C-466.076,28.835,-488.035,121.01,-468.448,213.933C-445.469,322.949,-418.267,444.982,-327.417,509.47C-236.002,574.358,-110.958,562.426,0,546.448" fill="#0b2239"></path><path d="M1440 1131.6599999999999C1545.597 1119.444 1583.779 980.217 1675.221 926.011 1772.079 868.594 1932.262 908.398 1984.7069999999999 808.759 2036.328 710.686 1918.173 603.217 1902.9 493.445 1887.5230000000001 382.922 1958.931 257.162 1895.217 165.55200000000002 1831.692 74.214 1700.737 64.45299999999997 1591.157 45.206999999999994 1491.17 27.644999999999982 1391.354 34.15700000000004 1293.129 59.803 1192.391 86.10500000000002 1094.757 123.88999999999999 1018.463 194.736 936.5450000000001 270.805 869.664 365.312 846.384 474.651 822.27 587.909 825.3 714.542 886.916 812.585 946.438 907.297 1070.098 928.908 1166.993 984.807 1258.35 1037.511 1335.23 1143.781 1440 1131.6599999999999" fill="#113255"></path></g><defs><mask id="SvgjsMask1000"><rect width="1440" height="560" fill="#ffffff"></rect></mask></defs></svg>