<svg xmlns="http://www.w3.org/2000/svg" version="1.1" xmlns:xlink="http://www.w3.org/1999/xlink" xmlns:svgjs="http://svgjs.com/svgjs" width="1440" height="560" preserveAspectRatio="none" viewBox="0 0 1440 560"><g mask="url(&quot;#SvgjsMask1000&quot;)" fill="none"><rect width="1440" height="560" x="0" y="0" fill="#0e2a47"></rect><path d="M280 48.28C227.55 48.28 153.33 101.19 153.33 140C153.33 174.2 222.84 194.29 280 194.29C309.92 194.29 327.5 170.02 327.5 140C327.5 97.02 314.64 48.28 280 48.28" stroke="rgba(51, 121, 194, 0.58)" stroke-width="2"></path><path d="M488.37 0C530.57 22.64 528.9 75.12 560 75.12C585.81 75.12 569.41 17.59 602.19 0C639.41 -19.97 651.1 0 700 0C770 0 770 0 840 0C910 0 910 0 980 0C1011.62 0 1012.98 -6.86 1043.23 0C1082.98 9.01 1084.99 31.73 1120 31.73C1138.44 31.73 1130.19 4.52 1150.13 0C1200.19 -11.35 1205.07 0 1260 0C1330 0 1330 0 1400 0C1470 0 1505 -35 1540 0C1575 35 1540 70 1540 140C1540 210 1540 210 1540 280C1540 329.19 1552.09 333.88 1540 378.38C1533.08 403.88 1501.98 396.78 1501.98 420C1501.98 453.4 1529.69 453.65 1540 491.63C1548.7 523.65 1562.97 548.78 1540 560C1492.97 582.97 1470 560 1400 560C1330 560 1330 560 1260 560C1190 560 1190 560 1120 560C1051.43 560 1051.12 560.98 982.86 560C981.12 559.98 981.7 558.37 980 558C910.27 542.82 903.87 528.1 840 528.89C823.1 529.1 835.41 556.23 818.46 560C765.41 571.79 759.23 560 700 560C630 560 630 560 560 560C490 560 490 560 420 560C350 560 350 560 280 560C210 560 210 560 140 560C70 560 35 595 0 560C-35 525 0 490 0 420C0 361.66 -1.76 361.51 0 303.33C0.36 291.51 4.24 291.54 4.24 280C4.24 272.88 0.22 273.28 0 266C-1.9 203.28 0 203 0 140C0 70 -35 35 0 0C35 -35 70 0 140 0C210 0 210 0 280 0C350 0 350 0 420 0C454.18 0 460.57 -14.92 488.37 0" stroke="rgba(51, 121, 194, 0.58)" stroke-width="2"></path><path d="M980 251.43C964.93 251.43 960 266.9 960 280C960 290.04 967.5 297.72 980 297.72C1027.5 297.72 1080 291.43 1080 280C1080 268.29 1024.93 251.43 980 251.43" stroke="rgba(51, 121, 194, 0.58)" stroke-width="2"></path><path d="M140 404.44C108.99 404.44 77.78 413.72 77.78 420C77.78 426.16 108.93 429.33 140 429.33C168.04 429.33 196 426.15 196 420C196 413.7 168.1 404.44 140 404.44" stroke="rgba(51, 121, 194, 0.58)" stroke-width="2"></path><path d="M140 85.42C87.24 85.42 32.77 23.97 32.77 0C32.77 -18.74 86.38 0 140 0C189.41 0 238.82 -18.4 238.82 0C238.82 24.31 190.27 85.42 140 85.42" stroke="rgba(51, 121, 194, 0.58)" stroke-width="2"></path><path d="M390 140C417.67 94.4 393.03 35 420 35C454.7 35 464.35 89.91 513.33 140C534.35 161.5 532.39 167.83 560 178.18C625.73 202.83 642.63 222.26 700 210C731.94 203.17 738.62 173.81 738.62 140C738.62 112.15 717.57 114.46 700 86.67C673.33 44.46 650.14 28.92 650.14 0C650.14 -14.42 675.07 0 700 0C770 0 770 0 840 0C892.89 0 903.77 -18.49 945.78 0C973.77 12.31 950.97 48.54 980 61.6C1038.08 87.74 1059.31 95.83 1120 78.4C1166.53 65.03 1150.86 24.4 1194.43 0C1220.86 -14.8 1227.22 0 1260 0C1330 0 1330 0 1400 0C1470 0 1505 -35 1540 0C1575 35 1540 70 1540 140C1540 210 1540 210 1540 280C1540 305.54 1552.1 310.23 1540 331.08C1511.48 380.23 1463.72 369.37 1458.77 420C1452.52 483.83 1534.16 520.55 1517.6 560C1504.78 590.55 1458.8 560 1400 560C1364.14 560 1351.51 581.11 1328.29 560C1281.51 517.48 1296.8 494.18 1260 432.73C1254.88 424.18 1245.54 429.59 1244.44 420C1236.79 353.22 1274.29 329.67 1242.5 280C1212.07 232.45 1182.55 249.39 1120 225.56C1051.3 199.39 1037.41 165.12 980 180C932.41 192.34 910 234.13 910 280C910 315.15 943.7 312.6 980 342.03C1030.04 382.6 1036.96 375.79 1082.67 420C1106.96 443.49 1098.64 450.79 1120 477.44C1154.75 520.79 1194.88 535.31 1194.88 560C1194.88 576.59 1157.44 560 1120 560C1087.14 560 1083.7 570.92 1054.29 560C1013.7 544.92 1020.92 526.32 980 508C913.78 478.36 897.49 449.59 840 464.07C794.29 475.59 816.52 530.59 773.59 560C746.52 578.55 736.8 560 700 560C630 560 630 560 560 560C490 560 490 560 420 560C356.73 560 293.46 580.46 293.46 560C293.46 534.76 350.2 486.45 420 468.61C483.47 452.39 492.69 501.28 560 491.89C632.69 481.75 630.03 460.79 700 429.55C710.53 424.85 721 426.82 721 420C721 410.99 713.6 404.31 700 397.89C633.1 366.31 631.86 351.34 560 344C491.86 337.04 487.6 377.69 420 369.28C347.6 360.27 352.96 325.34 280 309.17C212.96 294.31 205.89 318.55 140 307.22C121.04 303.96 110.3 294.29 110.3 280C110.3 264.34 119.79 249.03 140 247.33C204.64 241.89 222.74 290.29 280 265.71C347.74 236.63 347.67 209.75 390 140" stroke="rgba(51, 121, 194, 0.58)" stroke-width="2"></path><path d="M1260 112.61C1245.46 112.61 1230 122.05 1230 140C1230 188.25 1245.87 245 1260 245C1274 245 1286.25 189.01 1286.25 140C1286.25 122.82 1273.58 112.61 1260 112.61" stroke="rgba(51, 121, 194, 0.58)" stroke-width="2"></path><path d="M0 536.67C60.49 505.42 73.12 481.68 140 487.67C203.4 493.35 260.56 540.53 260.56 560C260.56 576.7 200.28 560 140 560C70 560 60 570 0 560C-10 558.33 -9.51 541.59 0 536.67" stroke="rgba(51, 121, 194, 0.58)" stroke-width="2"></path><path d="M140 26.1C123.88 26.1 107.23 7.32 107.23 0C107.23 -5.73 123.62 0 140 0C155.1 0 170.2 -5.62 170.2 0C170.2 7.43 155.36 26.1 140 26.1" stroke="rgba(51, 121, 194, 0.58)" stroke-width="2"></path><path d="M700 3.33C698.88 1.77 698.08 1.11 698.08 0C698.08 -0.55 699.04 0 700 0C770 0 770 0 840 0C854 0 861.36 -10.94 868 0C903.86 59.06 926.98 70.73 925 140C922.98 210.73 887.95 208.38 860 280C845.45 317.27 860.07 357.78 840 357.78C813.23 357.78 775.08 326.5 766.32 280C754.57 217.61 814.22 203.64 798.97 140C781.06 65.3 749.32 71.77 700 3.33" stroke="rgba(51, 121, 194, 0.58)" stroke-width="2"></path><path d="M1061.05 140C1061.05 131.2 1091.51 125.07 1120 125.07C1134.32 125.07 1146.67 131.53 1146.67 140C1146.67 149.36 1135.02 160.74 1120 160.74C1092.21 160.74 1061.05 149.04 1061.05 140" stroke="rgba(51, 121, 194, 0.58)" stroke-width="2"></path><path d="M1260 36.52C1246.29 20.58 1238.73 12.15 1238.73 0C1238.73 -6.11 1249.36 0 1260 0C1330 0 1330 0 1400 0C1470 0 1494.63 -24.63 1540 0C1564.63 13.37 1556.28 45.49 1540 76C1518.94 115.49 1492.56 100.33 1465.33 140C1422.56 202.33 1427.31 280 1400 280C1374.23 280 1394.47 201.4 1359.17 140C1324.47 79.66 1306.51 90.58 1260 36.52" stroke="rgba(51, 121, 194, 0.58)" stroke-width="2"></path><path d="M351.79 280C351.79 244.81 382.46 196.88 420 196.88C464.07 196.88 515 246.43 515 280C515 307.27 466.26 318.55 420 318.55C384.65 318.55 351.79 305.64 351.79 280" stroke="rgba(51, 121, 194, 0.58)" stroke-width="2"></path><path d="M1400 280C1400 275.15 1476.96 264.44 1540 264.44C1546.96 264.44 1540 272.22 1540 280C1540 281.89 1541.84 283.78 1540 283.78C1471.84 283.78 1400 284.82 1400 280" stroke="rgba(51, 121, 194, 0.58)" stroke-width="2"></path><path d="M881.48 420C881.48 402.21 933.46 386.33 980 386.33C1004.88 386.33 1024.33 402.51 1024.33 420C1024.33 438.34 1005.43 458 980 458C934.01 458 881.48 438.04 881.48 420" stroke="rgba(51, 121, 194, 0.58)" stroke-width="2"></path><path d="M1360.63 420C1360.63 351.1 1386.05 280 1400 280C1413.51 280 1415.56 350.19 1415.56 420C1415.56 468.65 1413.3 516.92 1400 516.92C1385.83 516.92 1360.63 469.56 1360.63 420" stroke="rgba(51, 121, 194, 0.58)" stroke-width="2"></path><path d="M108.89 560C108.89 556.34 124.86 546 140 546C152.08 546 163.33 556.23 163.33 560C163.33 563.23 151.67 560 140 560C124.44 560 108.89 563.34 108.89 560" stroke="rgba(51, 121, 194, 0.58)" stroke-width="2"></path><path d="M360.77 560C360.77 548.19 387.78 517.22 420 517.22C470.5 517.22 526.21 548.9 526.21 560C526.21 570.29 473.11 560 420 560C390.38 560 360.77 569.58 360.77 560" stroke="rgba(51, 121, 194, 0.58)" stroke-width="2"></path><path d="M602.61 560C602.61 546.5 658.84 509.09 700 509.09C721.89 509.09 728.72 542.93 728.72 560C728.72 568.39 714.36 560 700 560C651.31 560 602.61 571.96 602.61 560" stroke="rgba(51, 121, 194, 0.58)" stroke-width="2"></path></g><defs><mask id="SvgjsMask1000"><rect width="1440" height="560" fill="#ffffff"></rect></mask></defs></svg>