<svg xmlns="http://www.w3.org/2000/svg" version="1.1" xmlns:xlink="http://www.w3.org/1999/xlink" xmlns:svgjs="http://svgjs.com/svgjs" width="1440" height="560" preserveAspectRatio="none" viewBox="0 0 1440 560"><g mask="url(&quot;#SvgjsMask1000&quot;)" fill="none"><rect width="1440" height="560" x="0" y="0" fill="#0e2a47"></rect><path d="M -461.68971036237417,221 C -365.69,257.8 -173.69,412.4 18.310289637625825,405 C 210.31,397.6 306.31,181.2 498.31028963762583,184 C 690.31,186.8 786.31,438 978.3102896376258,419 C 1170.31,400 1365.97,79 1458.3102896376258,89 C 1550.65,99 1443.66,393 1440,469" stroke="rgba(51, 121, 194, 0.58)" stroke-width="2"></path><path d="M -352.43983860471576,135 C -256.44,198 -64.44,460.6 127.56016139528425,450 C 319.56,439.4 415.56,77.4 607.5601613952842,82 C 799.56,86.6 895.56,444.2 1087.5601613952842,473 C 1279.56,501.8 1497.07,231 1567.5601613952842,226 C 1638.05,221 1465.51,403.6 1440,448" stroke="rgba(51, 121, 194, 0.58)" stroke-width="2"></path><path d="M -515.7538933455089,423 C -419.75,388 -227.75,234 -35.753893345508914,248 C 156.25,262 252.25,516.2 444.2461066544911,493 C 636.25,469.8 732.25,135.8 924.2461066544911,132 C 1116.25,128.2 1301.1,466.2 1404.246106654491,474 C 1507.4,481.8 1432.85,231.6 1440,171" stroke="rgba(51, 121, 194, 0.58)" stroke-width="2"></path><path d="M -85.51630573413195,228 C 10.48,280.6 202.48,493.4 394.48369426586805,491 C 586.48,488.6 682.48,215.2 874.483694265868,216 C 1066.48,216.8 1162.48,506.6 1354.483694265868,495 C 1546.48,483.4 1817.38,159.8 1834.483694265868,158 C 1851.59,156.2 1518.9,420.4 1440,486" stroke="rgba(51, 121, 194, 0.58)" stroke-width="2"></path></g><defs><mask id="SvgjsMask1000"><rect width="1440" height="560" fill="#ffffff"></rect></mask></defs></svg>